<?xml version="1.0" encoding="utf-8"?>
<!-- Generator: Adobe Illustrator 16.0.0, SVG Export Plug-In . SVG Version: 6.00 Build 0)  -->
<!DOCTYPE svg PUBLIC "-//W3C//DTD SVG 1.1//EN" "http://www.w3.org/Graphics/SVG/1.1/DTD/svg11.dtd">
<svg version="1.1" id="Layer_1" xmlns="http://www.w3.org/2000/svg" xmlns:xlink="http://www.w3.org/1999/xlink" x="0px" y="0px"
	 width="37.667px" height="436.281px" viewBox="0 0 37.667 436.281" enable-background="new 0 0 37.667 436.281"
	 xml:space="preserve">
<rect fill="#578D9A" width="37.667" height="436.281"/>
<g>
	<path fill="#FFFFFF" d="M22.09,124.817c2.024-0.297,2.592-1.89,2.592-3.374c0-3.698-3.239-5.048-6.506-5.048
		c-4.562,0-6.478,2.51-6.478,5.776c0,0.999,0.135,1.998,0.323,2.996h3.779v-4.13h3.698v9.205H9.079
		C8.404,127.409,8,124.521,8,121.632c0-2.105,0.323-5.021,2.024-7.288c1.862-2.483,4.939-3.617,8.044-3.617
		c2.348,0,5.614,0.702,7.747,2.915c2.186,2.322,2.591,5.723,2.591,8.071c0,3.05-0.647,5.561-2.268,7.126
		c-1.484,1.403-3.104,1.431-4.049,1.458V124.817z"/>
	<path fill="#FFFFFF" d="M27.921,133.919v9.016c0,3.509-0.217,4.832-1.404,5.993c-0.594,0.594-1.674,1.35-3.778,1.35
		c-2.133,0-3.051-0.864-3.617-1.782c-0.783-1.242-0.918-2.429-0.999-2.969h-0.108c-0.107,3.779-1.781,3.995-4.777,4.427
		c-1.322,0.189-3.428,0.459-4.805,0.918v-5.857c1.188-0.324,2.672-0.459,4.399-0.648c2.349-0.243,3.213-0.324,3.213-2.753v-2.267
		H8.432v-5.426H27.921z M19.553,139.345v2.024c0,1.188,0,1.781,0.162,2.24c0.378,1.188,1.593,1.431,2.213,1.431
		c2.402,0,2.402-2.105,2.402-3.671v-2.024H19.553z"/>
	<path fill="#FFFFFF" d="M25.761,155.411c2.483,2.457,2.699,6.182,2.699,7.612c0,7.774-5.587,9.879-10.338,9.879
		c-7.774,0-10.149-5.506-10.149-10.149c0-5.183,2.861-10.015,10.122-10.015C19.391,152.738,23.277,152.955,25.761,155.411z
		 M11.94,162.807c0,3.86,3.563,4.508,6.263,4.508c2.727,0,4.076-0.648,4.939-1.242c1.08-0.783,1.403-2.051,1.403-3.239
		c0-3.563-3.077-4.535-6.424-4.535C15.018,158.299,11.94,159.217,11.94,162.807z"/>
	<path fill="#FFFFFF" d="M21.793,188.348c1.971-0.243,2.699-1.62,2.699-3.158c0-3.266-2.996-4.265-6.56-4.265
		c-1.188,0-6.1,0.027-6.1,4.21c0,2.861,2.078,3.158,2.834,3.267v5.614c-6.101-0.027-6.613-6.235-6.613-8.772
		c0-1.89,0.324-5.237,2.592-7.396c2.267-2.133,5.371-2.511,7.396-2.511c2.672,0,5.345,0.621,7.423,2.457
		c2.268,1.998,2.861,4.562,2.861,7.396c0,3.158-0.756,5.561-2.375,7.099c-1.674,1.565-3.429,1.593-4.157,1.62V188.348z"/>
	<path fill="#FFFFFF" d="M27.866,197.018v14.63h-3.725v-9.286h-4.049v8.746h-3.726v-8.746h-4.156v9.501H8.432v-14.846H27.866z"/>
	<path fill="#FFFFFF" d="M27.921,214.918v9.016c0,3.509-0.217,4.832-1.404,5.993c-0.594,0.594-1.674,1.35-3.778,1.35
		c-2.133,0-3.051-0.864-3.617-1.782c-0.783-1.242-0.918-2.429-0.999-2.969h-0.108c-0.107,3.779-1.781,3.995-4.777,4.427
		c-1.322,0.189-3.428,0.459-4.805,0.918v-5.857c1.188-0.324,2.672-0.459,4.399-0.648c2.349-0.243,3.213-0.324,3.213-2.753v-2.267
		H8.432v-5.426H27.921z M19.553,220.344v2.024c0,1.188,0,1.781,0.162,2.24c0.378,1.188,1.593,1.431,2.213,1.431
		c2.402,0,2.402-2.105,2.402-3.671v-2.024H19.553z"/>
	<path fill="#FFFFFF" d="M27.921,238.002l-8.18,4.265l8.18,4.4v5.561l-12.606-7.612H8.432v-5.453h7.126l12.363-7.423V238.002z"/>
	<path fill="#FFFFFF" d="M27.921,263.383v5.479H12.265v8.746H8.432v-14.226H27.921z"/>
	<path fill="#FFFFFF" d="M27.921,279.691v5.561H8.432v-5.561H27.921z"/>
	<path fill="#FFFFFF" d="M14.64,293.622c-0.782,0.027-3.022,0.081-3.022,3.294c0,0.458,0,2.888,2.213,2.888
		c0.918,0,1.539-0.378,1.89-1.674l1.241-4.777c0.352-1.351,1.27-4.832,5.345-4.832c3.158,0,6.101,2.376,6.101,8.206
		c0,7.611-4.13,7.936-6.208,7.963v-5.479c0.594,0,2.699,0.026,2.699-2.564c0-1.565-0.891-2.564-2.052-2.564
		c-1.431,0-1.781,1.188-1.997,1.971l-0.945,3.644c-0.675,2.592-1.484,5.669-5.614,5.669c-4.346,0-6.289-3.726-6.289-8.61
		c0-2.025,0.323-5.291,2.321-7.072c1.565-1.432,3.481-1.458,4.318-1.484V293.622z"/>
	<path fill="#FFFFFF" d="M24.061,312.224v-5.938h3.86v17.464h-3.86v-6.073H8.432v-5.453H24.061z"/>
</g>
</svg>
