<?xml version="1.0" encoding="utf-8"?>
<!-- Generator: Adobe Illustrator 16.0.0, SVG Export Plug-In . SVG Version: 6.00 Build 0)  -->
<!DOCTYPE svg PUBLIC "-//W3C//DTD SVG 1.1//EN" "http://www.w3.org/Graphics/SVG/1.1/DTD/svg11.dtd">
<svg version="1.1" id="Layer_1" xmlns="http://www.w3.org/2000/svg" xmlns:xlink="http://www.w3.org/1999/xlink" x="0px" y="0px"
	 width="305.833px" height="92.296px" viewBox="16.175 0 305.833 92.296" enable-background="new 16.175 0 305.833 92.296"
	 xml:space="preserve">
<rect x="19.53" y="3.354" fill="#2C1A32" width="299.122" height="68.257"/>
<path fill="#D86D2F" d="M322.008,74.967H16.175V0h305.833V74.967z M22.885,68.258h292.414V6.71H22.885V68.258z"/>
<g id="theFamilTable_2_">
	<rect x="108.259" y="58.626" fill="#D86D2F" width="121.665" height="33.67"/>
	<g>
		<path fill="#FFFFFF" d="M126.524,64.847h5.101v1.633h-3.178v7.667h3.032v1.632h-3.032v10.114h-1.923V64.847z"/>
		<path fill="#FFFFFF" d="M138.301,80.064h-3.381l-0.788,5.829h-1.923l3.089-21.046h2.624l3.09,21.046h-1.924L138.301,80.064z
			 M136.639,66.305h-0.059l-1.458,12.126h2.974L136.639,66.305z"/>
		<path fill="#FFFFFF" d="M150.106,64.847h2.973v21.046h-1.691V66.48h-0.058l-2.215,19.413h-2.39l-2.215-19.413h-0.059v19.413h-1.69
			V64.847h2.973l2.157,18.829h0.057L150.106,64.847z"/>
		<path fill="#FFFFFF" d="M155.877,64.847h1.923v21.046h-1.923V64.847z"/>
		<path fill="#FFFFFF" d="M160.775,64.847h1.923v19.412h3.177v1.634h-5.1V64.847z"/>
		<path fill="#FFFFFF" d="M170.599,64.847h1.923l-2.828,11.893v9.153h-1.922V76.74l-2.829-11.893h1.923l1.838,9.561h0.057
			L170.599,64.847z"/>
		<path fill="#FFFFFF" d="M178.905,66.48h-2.156v-1.633h6.238v1.633h-2.157v19.413h-1.925V66.48z"/>
		<path fill="#FFFFFF" d="M189.37,80.064h-3.381l-0.786,5.829h-1.925l3.09-21.046h2.623l3.089,21.046h-1.923L189.37,80.064z
			 M187.709,66.305h-0.059l-1.457,12.126h2.973L187.709,66.305z"/>
		<path fill="#FFFFFF" d="M194.005,64.847h3.585c1.836,0,2.975,0.32,2.975,2.419v5.335c0,1.633-0.613,2.216-2.1,2.273v0.059
			c1.341,0.058,2.186,0.496,2.186,1.953v6.588c0,2.098-1.138,2.419-3.061,2.419h-3.585V64.847z M197.211,74.147
			c0.904,0,1.429-0.264,1.429-1.516v-4.723c0-1.226-0.641-1.429-1.633-1.429h-1.079v7.667H197.211z M197.094,84.259
			c0.992,0,1.635-0.202,1.635-1.426v-5.771c0-1.021-0.613-1.283-1.518-1.283h-1.283v8.48H197.094z"/>
		<path fill="#FFFFFF" d="M203.711,64.847h1.924v19.412h3.178v1.634h-5.102V64.847z"/>
		<path fill="#FFFFFF" d="M211.26,64.847h5.102v1.633h-3.176v7.667h3.032v1.632h-3.032v8.48h3.176v1.634h-5.102V64.847z"/>
	</g>
	<g>
		<path fill="#FFFFFF" d="M117.256,78.763h0.463v-1.256l0.538-0.281v1.537h0.657v0.42h-0.657v5.893c0,0.282,0.12,0.394,0.313,0.394
			h0.344v0.424h-0.448c-0.479,0-0.747-0.17-0.747-0.691v-6.019h-0.463V78.763z"/>
		<path fill="#FFFFFF" d="M119.57,75.663h0.539v3.48h0.031c0.088-0.184,0.357-0.438,0.701-0.438c0.509,0,0.792,0.197,0.792,0.833
			v6.299h-0.538v-6.116c0-0.453-0.134-0.592-0.448-0.592c-0.239,0-0.537,0.254-0.537,0.775v5.933h-0.539V75.663z"/>
		<path fill="#FFFFFF" d="M124.515,83.482v1.564c0,0.48-0.313,0.847-1.016,0.847c-0.671,0-1-0.366-1-0.847v-5.494
			c0-0.523,0.33-0.847,1-0.847c0.703,0,1.016,0.323,1.016,0.847v2.845h-1.479v2.594c0,0.282,0.105,0.479,0.463,0.479
			c0.374,0,0.479-0.196,0.479-0.479v-1.509H124.515z M123.978,79.607c0-0.281-0.135-0.478-0.479-0.478
			c-0.328,0-0.463,0.196-0.463,0.478v2.368h0.942V79.607z"/>
	</g>
</g>
</svg>
