<?xml version="1.0" encoding="utf-8"?>
<!-- Generator: Adobe Illustrator 16.0.0, SVG Export Plug-In . SVG Version: 6.00 Build 0)  -->
<!DOCTYPE svg PUBLIC "-//W3C//DTD SVG 1.1//EN" "http://www.w3.org/Graphics/SVG/1.1/DTD/svg11.dtd">
<svg version="1.1" id="Layer_1" xmlns="http://www.w3.org/2000/svg" xmlns:xlink="http://www.w3.org/1999/xlink" x="0px" y="0px"
	 width="333.5px" height="92.296px" viewBox="0 0 333.5 92.296" enable-background="new 0 0 333.5 92.296" xml:space="preserve">
<g id="theFamilTable_1_">
	<rect x="0.25" y="0.232" fill="#D86D2F" width="333.5" height="92.296"/>
	<g>
		<path fill="#FFFFFF" d="M50.319,17.287h13.982v4.475h-8.71v21.014h8.31v4.475h-8.31v27.726h-5.272V17.287z"/>
		<path fill="#FFFFFF" d="M82.599,58.996H73.33l-2.157,15.979h-5.273l8.469-57.688h7.192l8.469,57.688h-5.273L82.599,58.996z
			 M78.044,21.282h-0.159L73.89,54.521h8.149L78.044,21.282z"/>
		<path fill="#FFFFFF" d="M114.958,17.287h8.149v57.688h-4.634V21.761h-0.16l-6.072,53.214h-6.552l-6.072-53.214h-0.16v53.214
			h-4.635V17.287h8.15l5.912,51.615h0.16L114.958,17.287z"/>
		<path fill="#FFFFFF" d="M130.778,17.287h5.273v57.688h-5.273V17.287z"/>
		<path fill="#FFFFFF" d="M144.203,17.287h5.272v53.215h8.71v4.474h-13.982V17.287z"/>
		<path fill="#FFFFFF" d="M171.128,17.287h5.273l-7.75,32.6v25.089h-5.273V49.886l-7.75-32.6h5.272l5.034,26.208h0.16
			L171.128,17.287z"/>
		<path fill="#FFFFFF" d="M193.902,21.761h-5.914v-4.475h17.1v4.475h-5.912v53.214h-5.273V21.761z"/>
		<path fill="#FFFFFF" d="M222.585,58.996h-9.268l-2.156,15.979h-5.275l8.471-57.688h7.189l8.469,57.688h-5.271L222.585,58.996z
			 M218.033,21.282h-0.16l-3.996,33.239h8.15L218.033,21.282z"/>
		<path fill="#FFFFFF" d="M235.291,17.287h9.826c5.035,0,8.15,0.879,8.15,6.632v14.622c0,4.474-1.678,6.072-5.752,6.232v0.16
			c3.676,0.16,5.992,1.358,5.992,5.353v18.058c0,5.753-3.115,6.632-8.391,6.632h-9.826V17.287z M244.08,42.775
			c2.477,0,3.916-0.719,3.916-4.154V25.677c0-3.356-1.76-3.916-4.475-3.916h-2.957v21.014H244.08z M243.759,70.501
			c2.717,0,4.475-0.561,4.475-3.916v-15.82c0-2.797-1.678-3.516-4.154-3.516h-3.516v23.252H243.759z"/>
		<path fill="#FFFFFF" d="M261.896,17.287h5.275v53.215h8.709v4.474h-13.984V17.287z"/>
		<path fill="#FFFFFF" d="M282.591,17.287h13.982v4.475h-8.707v21.014h8.309v4.475h-8.309v23.252h8.707v4.474h-13.982V17.287z"/>
	</g>
	<g>
		<path fill="#FFFFFF" d="M24.913,55.428h1.27V51.99l1.474-0.771v4.21h1.801v1.159h-1.801v16.146c0,0.773,0.327,1.082,0.859,1.082
			h0.941v1.159h-1.229c-1.31,0-2.046-0.464-2.046-1.894V56.587h-1.27V55.428z"/>
		<path fill="#FFFFFF" d="M31.258,46.93h1.475v9.541h0.082c0.245-0.502,0.982-1.198,1.924-1.198c1.392,0,2.17,0.541,2.17,2.279
			V74.82h-1.474V58.055c0-1.236-0.368-1.622-1.229-1.622c-0.655,0-1.474,0.695-1.474,2.125V74.82h-1.475V46.93z"/>
		<path fill="#FFFFFF" d="M44.811,68.369v4.288c0,1.313-0.86,2.318-2.785,2.318c-1.842,0-2.743-1.005-2.743-2.318V57.591
			c0-1.43,0.901-2.318,2.743-2.318c1.925,0,2.785,0.889,2.785,2.318v7.804h-4.055v7.108c0,0.771,0.287,1.313,1.27,1.313
			c1.024,0,1.311-0.541,1.311-1.313v-4.135H44.811z M43.336,57.746c0-0.771-0.369-1.313-1.311-1.313c-0.9,0-1.27,0.541-1.27,1.313
			v6.49h2.58V57.746z"/>
	</g>
</g>
</svg>
